<?xml version="1.0" encoding="UTF-8" standalone="no"?><svg xmlns="http://www.w3.org/2000/svg" xmlns:xlink="http://www.w3.org/1999/xlink" contentStyleType="text/css" height="869px" preserveAspectRatio="none" style="width:1169px;height:869px;background:#FFFFFF;" version="1.1" viewBox="0 0 1169 869" width="1169px" zoomAndPan="magnify"><defs/><g><!--MD5=[c3e97fed644131e807bab9f4508f7da4]
cluster VintageCarCommunity--><g id="cluster_VintageCarCommunity"><rect fill="none" height="856" rx="2.5" ry="2.5" style="stroke:#181818;stroke-width:1.0;" width="1156" x="7" y="7"/><path d="M199,7 L199,16.2969 L189,26.2969 L7,26.2969 " fill="none" style="stroke:#181818;stroke-width:1.0;"/><text fill="#000000" font-family="sans-serif" font-size="14" font-weight="bold" lengthAdjust="spacing" textLength="182" x="10" y="20.9951">VintageCarCommunity</text></g><!--MD5=[7413dc8ef6eac0a3a9e4b7252cc7ab18]
cluster AuthModule--><g id="cluster_AuthModule"><path d="M287,50 L385,50 A3.75,3.75 0 0 1 387.5,52.5 L394.5,72.2969 L699,72.2969 A2.5,2.5 0 0 1 701.5,74.7969 L701.5,260.5 A2.5,2.5 0 0 1 699,263 L287,263 A2.5,2.5 0 0 1 284.5,260.5 L284.5,52.5 A2.5,2.5 0 0 1 287,50 " fill="none" style="stroke:#000000;stroke-width:1.5;"/><line style="stroke:#000000;stroke-width:1.5;" x1="284.5" x2="394.5" y1="72.2969" y2="72.2969"/><text fill="#000000" font-family="sans-serif" font-size="14" font-weight="bold" lengthAdjust="spacing" textLength="97" x="288.5" y="64.9951">AuthModule</text></g><!--MD5=[9c0528271f87efcd968a85a455e3238e]
cluster ProfilModule--><g id="cluster_ProfilModule"><path d="M279,583 L382,583 A3.75,3.75 0 0 1 384.5,585.5 L391.5,605.2969 L714.5,605.2969 A2.5,2.5 0 0 1 717,607.7969 L717,828.5 A2.5,2.5 0 0 1 714.5,831 L279,831 A2.5,2.5 0 0 1 276.5,828.5 L276.5,585.5 A2.5,2.5 0 0 1 279,583 " fill="none" style="stroke:#000000;stroke-width:1.5;"/><line style="stroke:#000000;stroke-width:1.5;" x1="276.5" x2="391.5" y1="605.2969" y2="605.2969"/><text fill="#000000" font-family="sans-serif" font-size="14" font-weight="bold" lengthAdjust="spacing" textLength="102" x="280.5" y="597.9951">ProfilModule</text></g><!--MD5=[bf0a69094c89db4fd909c225d348ad02]
cluster SharedModule--><g id="cluster_SharedModule"><path d="M767.5,50 L882.5,50 A3.75,3.75 0 0 1 885,52.5 L892,72.2969 L1136.5,72.2969 A2.5,2.5 0 0 1 1139,74.7969 L1139,260.5 A2.5,2.5 0 0 1 1136.5,263 L767.5,263 A2.5,2.5 0 0 1 765,260.5 L765,52.5 A2.5,2.5 0 0 1 767.5,50 " fill="none" style="stroke:#000000;stroke-width:1.5;"/><line style="stroke:#000000;stroke-width:1.5;" x1="765" x2="892" y1="72.2969" y2="72.2969"/><text fill="#000000" font-family="sans-serif" font-size="14" font-weight="bold" lengthAdjust="spacing" textLength="114" x="769" y="64.9951">SharedModule</text></g><!--MD5=[c83af40a2e562aea7bedd6b0dbd122e8]
cluster AppModule--><g id="cluster_AppModule"><path d="M516.5,295 L606.5,295 A3.75,3.75 0 0 1 609,297.5 L616,317.2969 L700.5,317.2969 A2.5,2.5 0 0 1 703,319.7969 L703,540.5 A2.5,2.5 0 0 1 700.5,543 L516.5,543 A2.5,2.5 0 0 1 514,540.5 L514,297.5 A2.5,2.5 0 0 1 516.5,295 " fill="none" style="stroke:#000000;stroke-width:1.5;"/><line style="stroke:#000000;stroke-width:1.5;" x1="514" x2="616" y1="317.2969" y2="317.2969"/><text fill="#000000" font-family="sans-serif" font-size="14" font-weight="bold" lengthAdjust="spacing" textLength="89" x="518" y="309.9951">AppModule</text></g><!--MD5=[9929010fc980a879c6eb789ef0243b8b]
cluster EinrichtungModule--><g id="cluster_EinrichtungModule"><path d="M49.5,50 L201.5,50 A3.75,3.75 0 0 1 204,52.5 L211,72.2969 L217.5,72.2969 A2.5,2.5 0 0 1 220,74.7969 L220,260.5 A2.5,2.5 0 0 1 217.5,263 L49.5,263 A2.5,2.5 0 0 1 47,260.5 L47,52.5 A2.5,2.5 0 0 1 49.5,50 " fill="none" style="stroke:#000000;stroke-width:1.5;"/><line style="stroke:#000000;stroke-width:1.5;" x1="47" x2="211" y1="72.2969" y2="72.2969"/><text fill="#000000" font-family="sans-serif" font-size="14" font-weight="bold" lengthAdjust="spacing" textLength="151" x="51" y="64.9951">EinrichtungModule</text></g><!--MD5=[465fe6880f6898b2f763b1bb0126f49b]
cluster LagerModule--><g id="cluster_LagerModule"><path d="M41.5,295 L145.5,295 A3.75,3.75 0 0 1 148,297.5 L155,317.2969 L225.5,317.2969 A2.5,2.5 0 0 1 228,319.7969 L228,540.5 A2.5,2.5 0 0 1 225.5,543 L41.5,543 A2.5,2.5 0 0 1 39,540.5 L39,297.5 A2.5,2.5 0 0 1 41.5,295 " fill="none" style="stroke:#000000;stroke-width:1.5;"/><line style="stroke:#000000;stroke-width:1.5;" x1="39" x2="155" y1="317.2969" y2="317.2969"/><text fill="#000000" font-family="sans-serif" font-size="14" font-weight="bold" lengthAdjust="spacing" textLength="103" x="43" y="309.9951">LagerModule</text></g><!--MD5=[e486dfb777140cf0504721b1d207b217]
cluster WareModule--><g id="cluster_WareModule"><path d="M270.5,295 L370.5,295 A3.75,3.75 0 0 1 373,297.5 L380,317.2969 L471.5,317.2969 A2.5,2.5 0 0 1 474,319.7969 L474,540.5 A2.5,2.5 0 0 1 471.5,543 L270.5,543 A2.5,2.5 0 0 1 268,540.5 L268,297.5 A2.5,2.5 0 0 1 270.5,295 " fill="none" style="stroke:#000000;stroke-width:1.5;"/><line style="stroke:#000000;stroke-width:1.5;" x1="268" x2="380" y1="317.2969" y2="317.2969"/><text fill="#000000" font-family="sans-serif" font-size="14" font-weight="bold" lengthAdjust="spacing" textLength="99" x="272" y="309.9951">WareModule</text></g><!--MD5=[2220f037e679b726fe0cc15026a02009]
cluster FahrzeugModule--><g id="cluster_FahrzeugModule"><path d="M759.5,295 L892.5,295 A3.75,3.75 0 0 1 895,297.5 L902,317.2969 L943.5,317.2969 A2.5,2.5 0 0 1 946,319.7969 L946,540.5 A2.5,2.5 0 0 1 943.5,543 L759.5,543 A2.5,2.5 0 0 1 757,540.5 L757,297.5 A2.5,2.5 0 0 1 759.5,295 " fill="none" style="stroke:#000000;stroke-width:1.5;"/><line style="stroke:#000000;stroke-width:1.5;" x1="757" x2="902" y1="317.2969" y2="317.2969"/><text fill="#000000" font-family="sans-serif" font-size="14" font-weight="bold" lengthAdjust="spacing" textLength="132" x="761" y="309.9951">FahrzeugModule</text></g><!--MD5=[87dc373cf748a002861c3a8f8fd59f45]
cluster DashboardModule--><g id="cluster_DashboardModule"><path d="M41.5,681 L187.5,681 A3.75,3.75 0 0 1 190,683.5 L197,703.2969 L225.5,703.2969 A2.5,2.5 0 0 1 228,705.7969 L228,828.5 A2.5,2.5 0 0 1 225.5,831 L41.5,831 A2.5,2.5 0 0 1 39,828.5 L39,683.5 A2.5,2.5 0 0 1 41.5,681 " fill="none" style="stroke:#000000;stroke-width:1.5;"/><line style="stroke:#000000;stroke-width:1.5;" x1="39" x2="197" y1="703.2969" y2="703.2969"/><text fill="#000000" font-family="sans-serif" font-size="14" font-weight="bold" lengthAdjust="spacing" textLength="145" x="43" y="695.9951">DashboardModule</text></g><!--MD5=[23689a62b5e80204d759960f89ec0344]
entity Login--><g id="elem_Login"><rect fill="#F1F1F1" height="62.5938" rx="2.5" ry="2.5" style="stroke:#181818;stroke-width:0.5;" width="141" x="300.5" y="183.5"/><rect fill="#F1F1F1" height="10" style="stroke:#181818;stroke-width:0.5;" width="15" x="421.5" y="188.5"/><rect fill="#F1F1F1" height="2" style="stroke:#181818;stroke-width:0.5;" width="4" x="419.5" y="190.5"/><rect fill="#F1F1F1" height="2" style="stroke:#181818;stroke-width:0.5;" width="4" x="419.5" y="194.5"/><text fill="#000000" font-family="sans-serif" font-size="14" font-style="italic" lengthAdjust="spacing" textLength="101" x="315.5" y="216.4951">«Component»</text><text fill="#000000" font-family="sans-serif" font-size="14" lengthAdjust="spacing" textLength="39" x="346.5" y="232.792">Login</text></g><!--MD5=[d193f1a4c11c96be3822ab7a501decff]
entity Signup--><g id="elem_Signup"><rect fill="#F1F1F1" height="62.5938" rx="2.5" ry="2.5" style="stroke:#181818;stroke-width:0.5;" width="141" x="300.5" y="85.5"/><rect fill="#F1F1F1" height="10" style="stroke:#181818;stroke-width:0.5;" width="15" x="421.5" y="90.5"/><rect fill="#F1F1F1" height="2" style="stroke:#181818;stroke-width:0.5;" width="4" x="419.5" y="92.5"/><rect fill="#F1F1F1" height="2" style="stroke:#181818;stroke-width:0.5;" width="4" x="419.5" y="96.5"/><text fill="#000000" font-family="sans-serif" font-size="14" font-style="italic" lengthAdjust="spacing" textLength="101" x="315.5" y="118.4951">«Component»</text><text fill="#000000" font-family="sans-serif" font-size="14" lengthAdjust="spacing" textLength="49" x="341.5" y="134.792">Signup</text></g><!--MD5=[bf32012786206e1efabc4dc4f3ffe5ac]
entity ForgotPassword--><g id="elem_ForgotPassword"><rect fill="#F1F1F1" height="62.5938" rx="2.5" ry="2.5" style="stroke:#181818;stroke-width:0.5;" width="154" x="531.5" y="183.5"/><rect fill="#F1F1F1" height="10" style="stroke:#181818;stroke-width:0.5;" width="15" x="665.5" y="188.5"/><rect fill="#F1F1F1" height="2" style="stroke:#181818;stroke-width:0.5;" width="4" x="663.5" y="190.5"/><rect fill="#F1F1F1" height="2" style="stroke:#181818;stroke-width:0.5;" width="4" x="663.5" y="194.5"/><text fill="#000000" font-family="sans-serif" font-size="14" font-style="italic" lengthAdjust="spacing" textLength="101" x="553" y="216.4951">«Component»</text><text fill="#000000" font-family="sans-serif" font-size="14" lengthAdjust="spacing" textLength="114" x="546.5" y="232.792">ForgotPassword</text></g><!--MD5=[929cdefe8db858c8ee57b0f0a195d398]
entity VerifyEmail--><g id="elem_VerifyEmail"><rect fill="#F1F1F1" height="62.5938" rx="2.5" ry="2.5" style="stroke:#181818;stroke-width:0.5;" width="141" x="538" y="85.5"/><rect fill="#F1F1F1" height="10" style="stroke:#181818;stroke-width:0.5;" width="15" x="659" y="90.5"/><rect fill="#F1F1F1" height="2" style="stroke:#181818;stroke-width:0.5;" width="4" x="657" y="92.5"/><rect fill="#F1F1F1" height="2" style="stroke:#181818;stroke-width:0.5;" width="4" x="657" y="96.5"/><text fill="#000000" font-family="sans-serif" font-size="14" font-style="italic" lengthAdjust="spacing" textLength="101" x="553" y="118.4951">«Component»</text><text fill="#000000" font-family="sans-serif" font-size="14" lengthAdjust="spacing" textLength="82" x="562.5" y="134.792">VerifyEmail</text></g><!--MD5=[9805712dd9de588b3638fa846fe13b08]
entity Einlagerer--><g id="elem_Einlagerer"><rect fill="#F1F1F1" height="62.5938" rx="2.5" ry="2.5" style="stroke:#181818;stroke-width:0.5;" width="141" x="300.5" y="724.5"/><rect fill="#F1F1F1" height="10" style="stroke:#181818;stroke-width:0.5;" width="15" x="421.5" y="729.5"/><rect fill="#F1F1F1" height="2" style="stroke:#181818;stroke-width:0.5;" width="4" x="419.5" y="731.5"/><rect fill="#F1F1F1" height="2" style="stroke:#181818;stroke-width:0.5;" width="4" x="419.5" y="735.5"/><text fill="#000000" font-family="sans-serif" font-size="14" font-style="italic" lengthAdjust="spacing" textLength="101" x="315.5" y="757.4951">«Component»</text><text fill="#000000" font-family="sans-serif" font-size="14" lengthAdjust="spacing" textLength="73" x="329.5" y="773.792">Einlagerer</text></g><!--MD5=[c37f3a4f40fbd09c37a83d08a6c262e2]
entity Lagerhalter--><g id="elem_Lagerhalter"><rect fill="#F1F1F1" height="62.5938" rx="2.5" ry="2.5" style="stroke:#181818;stroke-width:0.5;" width="141" x="300.5" y="626.5"/><rect fill="#F1F1F1" height="10" style="stroke:#181818;stroke-width:0.5;" width="15" x="421.5" y="631.5"/><rect fill="#F1F1F1" height="2" style="stroke:#181818;stroke-width:0.5;" width="4" x="419.5" y="633.5"/><rect fill="#F1F1F1" height="2" style="stroke:#181818;stroke-width:0.5;" width="4" x="419.5" y="637.5"/><text fill="#000000" font-family="sans-serif" font-size="14" font-style="italic" lengthAdjust="spacing" textLength="101" x="315.5" y="659.4951">«Component»</text><text fill="#000000" font-family="sans-serif" font-size="14" lengthAdjust="spacing" textLength="83" x="324.5" y="675.792">Lagerhalter</text></g><!--MD5=[c17c1cf2c91b3ca8be1676c218356821]
entity WerkstattInhaber--><g id="elem_WerkstattInhaber"><rect fill="#F1F1F1" height="62.5938" rx="2.5" ry="2.5" style="stroke:#181818;stroke-width:0.5;" width="169" x="524" y="724.5"/><rect fill="#F1F1F1" height="10" style="stroke:#181818;stroke-width:0.5;" width="15" x="673" y="729.5"/><rect fill="#F1F1F1" height="2" style="stroke:#181818;stroke-width:0.5;" width="4" x="671" y="731.5"/><rect fill="#F1F1F1" height="2" style="stroke:#181818;stroke-width:0.5;" width="4" x="671" y="735.5"/><text fill="#000000" font-family="sans-serif" font-size="14" font-style="italic" lengthAdjust="spacing" textLength="101" x="553" y="757.4951">«Component»</text><text fill="#000000" font-family="sans-serif" font-size="14" lengthAdjust="spacing" textLength="129" x="539" y="773.792">WerkstattInhaber</text></g><!--MD5=[39921182f582fd348d6dece722a82cfc]
entity Ersatzteilhandler--><g id="elem_Ersatzteilhandler"><rect fill="#F1F1F1" height="62.5938" rx="2.5" ry="2.5" style="stroke:#181818;stroke-width:0.5;" width="163" x="527" y="626.5"/><rect fill="#F1F1F1" height="10" style="stroke:#181818;stroke-width:0.5;" width="15" x="670" y="631.5"/><rect fill="#F1F1F1" height="2" style="stroke:#181818;stroke-width:0.5;" width="4" x="668" y="633.5"/><rect fill="#F1F1F1" height="2" style="stroke:#181818;stroke-width:0.5;" width="4" x="668" y="637.5"/><text fill="#000000" font-family="sans-serif" font-size="14" font-style="italic" lengthAdjust="spacing" textLength="101" x="553" y="659.4951">«Component»</text><text fill="#000000" font-family="sans-serif" font-size="14" lengthAdjust="spacing" textLength="123" x="542" y="675.792">Ersatzteilhandler</text></g><!--MD5=[178ef45a842ec9d79f4cc6f51d3e454b]
entity Termin--><g id="elem_Termin"><rect fill="#F1F1F1" height="62.5938" rx="2.5" ry="2.5" style="stroke:#181818;stroke-width:0.5;" width="141" x="781" y="183.5"/><rect fill="#F1F1F1" height="10" style="stroke:#181818;stroke-width:0.5;" width="15" x="902" y="188.5"/><rect fill="#F1F1F1" height="2" style="stroke:#181818;stroke-width:0.5;" width="4" x="900" y="190.5"/><rect fill="#F1F1F1" height="2" style="stroke:#181818;stroke-width:0.5;" width="4" x="900" y="194.5"/><text fill="#000000" font-family="sans-serif" font-size="14" font-style="italic" lengthAdjust="spacing" textLength="101" x="796" y="216.4951">«Component»</text><text fill="#000000" font-family="sans-serif" font-size="14" lengthAdjust="spacing" textLength="51" x="821" y="232.792">Termin</text></g><!--MD5=[0eccd4ce3a1363f65266bf24e3b48523]
entity Anfrage--><g id="elem_Anfrage"><rect fill="#F1F1F1" height="62.5938" rx="2.5" ry="2.5" style="stroke:#181818;stroke-width:0.5;" width="141" x="781" y="85.5"/><rect fill="#F1F1F1" height="10" style="stroke:#181818;stroke-width:0.5;" width="15" x="902" y="90.5"/><rect fill="#F1F1F1" height="2" style="stroke:#181818;stroke-width:0.5;" width="4" x="900" y="92.5"/><rect fill="#F1F1F1" height="2" style="stroke:#181818;stroke-width:0.5;" width="4" x="900" y="96.5"/><text fill="#000000" font-family="sans-serif" font-size="14" font-style="italic" lengthAdjust="spacing" textLength="101" x="796" y="118.4951">«Component»</text><text fill="#000000" font-family="sans-serif" font-size="14" lengthAdjust="spacing" textLength="57" x="818" y="134.792">Anfrage</text></g><!--MD5=[aeb0d1a45f2247fe30c85c902aaf4753]
entity Angebot--><g id="elem_Angebot"><rect fill="#F1F1F1" height="62.5938" rx="2.5" ry="2.5" style="stroke:#181818;stroke-width:0.5;" width="141" x="982" y="183.5"/><rect fill="#F1F1F1" height="10" style="stroke:#181818;stroke-width:0.5;" width="15" x="1103" y="188.5"/><rect fill="#F1F1F1" height="2" style="stroke:#181818;stroke-width:0.5;" width="4" x="1101" y="190.5"/><rect fill="#F1F1F1" height="2" style="stroke:#181818;stroke-width:0.5;" width="4" x="1101" y="194.5"/><text fill="#000000" font-family="sans-serif" font-size="14" font-style="italic" lengthAdjust="spacing" textLength="101" x="997" y="216.4951">«Component»</text><text fill="#000000" font-family="sans-serif" font-size="14" lengthAdjust="spacing" textLength="63" x="1016" y="232.792">Angebot</text></g><!--MD5=[659c2d56100aaf999379f124c997dbb7]
entity Suche--><g id="elem_Suche"><rect fill="#F1F1F1" height="62.5938" rx="2.5" ry="2.5" style="stroke:#181818;stroke-width:0.5;" width="141" x="982" y="85.5"/><rect fill="#F1F1F1" height="10" style="stroke:#181818;stroke-width:0.5;" width="15" x="1103" y="90.5"/><rect fill="#F1F1F1" height="2" style="stroke:#181818;stroke-width:0.5;" width="4" x="1101" y="92.5"/><rect fill="#F1F1F1" height="2" style="stroke:#181818;stroke-width:0.5;" width="4" x="1101" y="96.5"/><text fill="#000000" font-family="sans-serif" font-size="14" font-style="italic" lengthAdjust="spacing" textLength="101" x="997" y="118.4951">«Component»</text><text fill="#000000" font-family="sans-serif" font-size="14" lengthAdjust="spacing" textLength="43" x="1026" y="134.792">Suche</text></g><!--MD5=[2456f3a6f5aa4d75f9c9b6fd42c52dfa]
entity Main--><g id="elem_Main"><rect fill="#F1F1F1" height="62.5938" rx="2.5" ry="2.5" style="stroke:#181818;stroke-width:0.5;" width="141" x="538" y="338.5"/><rect fill="#F1F1F1" height="10" style="stroke:#181818;stroke-width:0.5;" width="15" x="659" y="343.5"/><rect fill="#F1F1F1" height="2" style="stroke:#181818;stroke-width:0.5;" width="4" x="657" y="345.5"/><rect fill="#F1F1F1" height="2" style="stroke:#181818;stroke-width:0.5;" width="4" x="657" y="349.5"/><text fill="#000000" font-family="sans-serif" font-size="14" font-style="italic" lengthAdjust="spacing" textLength="101" x="553" y="371.4951">«Component»</text><text fill="#000000" font-family="sans-serif" font-size="14" lengthAdjust="spacing" textLength="33" x="587" y="387.792">Main</text></g><!--MD5=[6e8f311b0aa23032184ffba0ef926f91]
entity App--><g id="elem_App"><rect fill="#F1F1F1" height="62.5938" rx="2.5" ry="2.5" style="stroke:#181818;stroke-width:0.5;" width="141" x="538" y="436.5"/><rect fill="#F1F1F1" height="10" style="stroke:#181818;stroke-width:0.5;" width="15" x="659" y="441.5"/><rect fill="#F1F1F1" height="2" style="stroke:#181818;stroke-width:0.5;" width="4" x="657" y="443.5"/><rect fill="#F1F1F1" height="2" style="stroke:#181818;stroke-width:0.5;" width="4" x="657" y="447.5"/><text fill="#000000" font-family="sans-serif" font-size="14" font-style="italic" lengthAdjust="spacing" textLength="101" x="553" y="469.4951">«Component»</text><text fill="#000000" font-family="sans-serif" font-size="14" lengthAdjust="spacing" textLength="30" x="588.5" y="485.792">App</text></g><!--MD5=[adaf63ae44107282f11a4721b57d4e85]
entity Werkstatt--><g id="elem_Werkstatt"><rect fill="#F1F1F1" height="62.5938" rx="2.5" ry="2.5" style="stroke:#181818;stroke-width:0.5;" width="141" x="63" y="85.5"/><rect fill="#F1F1F1" height="10" style="stroke:#181818;stroke-width:0.5;" width="15" x="184" y="90.5"/><rect fill="#F1F1F1" height="2" style="stroke:#181818;stroke-width:0.5;" width="4" x="182" y="92.5"/><rect fill="#F1F1F1" height="2" style="stroke:#181818;stroke-width:0.5;" width="4" x="182" y="96.5"/><text fill="#000000" font-family="sans-serif" font-size="14" font-style="italic" lengthAdjust="spacing" textLength="101" x="78" y="118.4951">«Component»</text><text fill="#000000" font-family="sans-serif" font-size="14" lengthAdjust="spacing" textLength="74" x="91.5" y="134.792">Werkstatt</text></g><!--MD5=[936cf12bd875316a363645f4a33d4164]
entity Unternehmen--><g id="elem_Unternehmen"><rect fill="#F1F1F1" height="62.5938" rx="2.5" ry="2.5" style="stroke:#181818;stroke-width:0.5;" width="141" x="63" y="183.5"/><rect fill="#F1F1F1" height="10" style="stroke:#181818;stroke-width:0.5;" width="15" x="184" y="188.5"/><rect fill="#F1F1F1" height="2" style="stroke:#181818;stroke-width:0.5;" width="4" x="182" y="190.5"/><rect fill="#F1F1F1" height="2" style="stroke:#181818;stroke-width:0.5;" width="4" x="182" y="194.5"/><text fill="#000000" font-family="sans-serif" font-size="14" font-style="italic" lengthAdjust="spacing" textLength="101" x="78" y="216.4951">«Component»</text><text fill="#000000" font-family="sans-serif" font-size="14" lengthAdjust="spacing" textLength="99" x="79" y="232.792">Unternehmen</text></g><!--MD5=[3cb358fc101c4fe1a29550ca8af09761]
entity Lager--><g id="elem_Lager"><rect fill="#F1F1F1" height="62.5938" rx="2.5" ry="2.5" style="stroke:#181818;stroke-width:0.5;" width="141" x="63" y="338.5"/><rect fill="#F1F1F1" height="10" style="stroke:#181818;stroke-width:0.5;" width="15" x="184" y="343.5"/><rect fill="#F1F1F1" height="2" style="stroke:#181818;stroke-width:0.5;" width="4" x="182" y="345.5"/><rect fill="#F1F1F1" height="2" style="stroke:#181818;stroke-width:0.5;" width="4" x="182" y="349.5"/><text fill="#000000" font-family="sans-serif" font-size="14" font-style="italic" lengthAdjust="spacing" textLength="101" x="78" y="371.4951">«Component»</text><text fill="#000000" font-family="sans-serif" font-size="14" lengthAdjust="spacing" textLength="40" x="108.5" y="387.792">Lager</text></g><!--MD5=[eb8efeb114e199aef070e3f217d3dd7b]
entity AddLager--><g id="elem_AddLager"><rect fill="#F1F1F1" height="62.5938" rx="2.5" ry="2.5" style="stroke:#181818;stroke-width:0.5;" width="141" x="63" y="436.5"/><rect fill="#F1F1F1" height="10" style="stroke:#181818;stroke-width:0.5;" width="15" x="184" y="441.5"/><rect fill="#F1F1F1" height="2" style="stroke:#181818;stroke-width:0.5;" width="4" x="182" y="443.5"/><rect fill="#F1F1F1" height="2" style="stroke:#181818;stroke-width:0.5;" width="4" x="182" y="447.5"/><text fill="#000000" font-family="sans-serif" font-size="14" font-style="italic" lengthAdjust="spacing" textLength="101" x="78" y="469.4951">«Component»</text><text fill="#000000" font-family="sans-serif" font-size="14" lengthAdjust="spacing" textLength="68" x="94.5" y="485.792">AddLager</text></g><!--MD5=[1474660df8434e68f2fb87cf858b5f0b]
entity ErsatzteilArtikel--><g id="elem_ErsatzteilArtikel"><rect fill="#F1F1F1" height="62.5938" rx="2.5" ry="2.5" style="stroke:#181818;stroke-width:0.5;" width="158" x="292" y="338.5"/><rect fill="#F1F1F1" height="10" style="stroke:#181818;stroke-width:0.5;" width="15" x="430" y="343.5"/><rect fill="#F1F1F1" height="2" style="stroke:#181818;stroke-width:0.5;" width="4" x="428" y="345.5"/><rect fill="#F1F1F1" height="2" style="stroke:#181818;stroke-width:0.5;" width="4" x="428" y="349.5"/><text fill="#000000" font-family="sans-serif" font-size="14" font-style="italic" lengthAdjust="spacing" textLength="101" x="315.5" y="371.4951">«Component»</text><text fill="#000000" font-family="sans-serif" font-size="14" lengthAdjust="spacing" textLength="118" x="307" y="387.792">ErsatzteilArtikel</text></g><!--MD5=[17737e49c286898813382e12d6080e03]
entity Service--><g id="elem_Service"><rect fill="#F1F1F1" height="62.5938" rx="2.5" ry="2.5" style="stroke:#181818;stroke-width:0.5;" width="141" x="300.5" y="436.5"/><rect fill="#F1F1F1" height="10" style="stroke:#181818;stroke-width:0.5;" width="15" x="421.5" y="441.5"/><rect fill="#F1F1F1" height="2" style="stroke:#181818;stroke-width:0.5;" width="4" x="419.5" y="443.5"/><rect fill="#F1F1F1" height="2" style="stroke:#181818;stroke-width:0.5;" width="4" x="419.5" y="447.5"/><text fill="#000000" font-family="sans-serif" font-size="14" font-style="italic" lengthAdjust="spacing" textLength="101" x="315.5" y="469.4951">«Component»</text><text fill="#000000" font-family="sans-serif" font-size="14" lengthAdjust="spacing" textLength="53" x="339.5" y="485.792">Service</text></g><!--MD5=[a787d51522abd436ce5742b58b014499]
entity Fahrzeug--><g id="elem_Fahrzeug"><rect fill="#F1F1F1" height="62.5938" rx="2.5" ry="2.5" style="stroke:#181818;stroke-width:0.5;" width="141" x="781" y="338.5"/><rect fill="#F1F1F1" height="10" style="stroke:#181818;stroke-width:0.5;" width="15" x="902" y="343.5"/><rect fill="#F1F1F1" height="2" style="stroke:#181818;stroke-width:0.5;" width="4" x="900" y="345.5"/><rect fill="#F1F1F1" height="2" style="stroke:#181818;stroke-width:0.5;" width="4" x="900" y="349.5"/><text fill="#000000" font-family="sans-serif" font-size="14" font-style="italic" lengthAdjust="spacing" textLength="101" x="796" y="371.4951">«Component»</text><text fill="#000000" font-family="sans-serif" font-size="14" lengthAdjust="spacing" textLength="65" x="814" y="387.792">Fahrzeug</text></g><!--MD5=[b447a93aae52cbcf53baee18f75a6e33]
entity AddFahrzeug--><g id="elem_AddFahrzeug"><rect fill="#F1F1F1" height="62.5938" rx="2.5" ry="2.5" style="stroke:#181818;stroke-width:0.5;" width="141" x="781" y="436.5"/><rect fill="#F1F1F1" height="10" style="stroke:#181818;stroke-width:0.5;" width="15" x="902" y="441.5"/><rect fill="#F1F1F1" height="2" style="stroke:#181818;stroke-width:0.5;" width="4" x="900" y="443.5"/><rect fill="#F1F1F1" height="2" style="stroke:#181818;stroke-width:0.5;" width="4" x="900" y="447.5"/><text fill="#000000" font-family="sans-serif" font-size="14" font-style="italic" lengthAdjust="spacing" textLength="101" x="796" y="469.4951">«Component»</text><text fill="#000000" font-family="sans-serif" font-size="14" lengthAdjust="spacing" textLength="93" x="800" y="485.792">AddFahrzeug</text></g><!--MD5=[63cd45bfe8ce5232e0cf4e791771f97b]
entity Dashboard--><g id="elem_Dashboard"><rect fill="#F1F1F1" height="62.5938" rx="2.5" ry="2.5" style="stroke:#181818;stroke-width:0.5;" width="141" x="63" y="724.5"/><rect fill="#F1F1F1" height="10" style="stroke:#181818;stroke-width:0.5;" width="15" x="184" y="729.5"/><rect fill="#F1F1F1" height="2" style="stroke:#181818;stroke-width:0.5;" width="4" x="182" y="731.5"/><rect fill="#F1F1F1" height="2" style="stroke:#181818;stroke-width:0.5;" width="4" x="182" y="735.5"/><text fill="#000000" font-family="sans-serif" font-size="14" font-style="italic" lengthAdjust="spacing" textLength="101" x="78" y="757.4951">«Component»</text><text fill="#000000" font-family="sans-serif" font-size="14" lengthAdjust="spacing" textLength="77" x="90" y="773.792">Dashboard</text></g><!--MD5=[0b76e84a92c35dd8e1be0001a7e94208]
link DashboardModule to ProfilModule--><!--MD5=[5d64602e1301b2884171b7b63a5ebc66]
link AppModule to FahrzeugModule--><!--MD5=[264edd111816d547db59d6a1e01d4480]
link LagerModule to WareModule--><!--MD5=[97f5cd6a6e941c8c434f908248b74482]
link WareModule to AppModule--><!--MD5=[f133f6114ffff1f3847dc947da3c8f07]
@startuml
' !theme vibrant
left to right direction

frame VintageCarCommunity {

package "AuthModule" {
    [Login] <<Component>>
    [Signup] <<Component>>
    [ForgotPassword] <<Component>>
    [VerifyEmail] <<Component>>
}

package "ProfilModule" {
    [Einlagerer] <<Component>>
    [Lagerhalter] <<Component>>
    [WerkstattInhaber] <<Component>>
    [Ersatzteilhandler] <<Component>>
}

package "SharedModule" {
    [Termin] <<Component>>
    [Anfrage] <<Component>>
    [Angebot] <<Component>>
    [Suche] <<Component>>
}

package "AppModule" {
    [Main] <<Component>>
    [App] <<Component>>
}

package "EinrichtungModule" {
    [Werkstatt] <<Component>>
    [Unternehmen] <<Component>>
}


package "LagerModule" {
    [Lager] <<Component>>
    [AddLager] <<Component>>
}

package "WareModule" {
    [ErsatzteilArtikel] <<Component>>
    [Service] <<Component>>
}

package "FahrzeugModule" {
    [Fahrzeug] <<Component>>
    [AddFahrzeug] <<Component>>
}

package "DashboardModule" {
    [Dashboard] <<Component>>
}

DashboardModule - -[hidden]> ProfilModule
AppModule - -[hidden]> FahrzeugModule
LagerModule - -[hidden]> WareModule
WareModule - -[hidden]> AppModule

}
@enduml

@startuml
left to right direction

frame VintageCarCommunity {

package "AuthModule" {
    [Login] <<Component>>
    [Signup] <<Component>>
    [ForgotPassword] <<Component>>
    [VerifyEmail] <<Component>>
}

package "ProfilModule" {
    [Einlagerer] <<Component>>
    [Lagerhalter] <<Component>>
    [WerkstattInhaber] <<Component>>
    [Ersatzteilhandler] <<Component>>
}

package "SharedModule" {
    [Termin] <<Component>>
    [Anfrage] <<Component>>
    [Angebot] <<Component>>
    [Suche] <<Component>>
}

package "AppModule" {
    [Main] <<Component>>
    [App] <<Component>>
}

package "EinrichtungModule" {
    [Werkstatt] <<Component>>
    [Unternehmen] <<Component>>
}


package "LagerModule" {
    [Lager] <<Component>>
    [AddLager] <<Component>>
}

package "WareModule" {
    [ErsatzteilArtikel] <<Component>>
    [Service] <<Component>>
}

package "FahrzeugModule" {
    [Fahrzeug] <<Component>>
    [AddFahrzeug] <<Component>>
}

package "DashboardModule" {
    [Dashboard] <<Component>>
}

DashboardModule - -[hidden]> ProfilModule
AppModule - -[hidden]> FahrzeugModule
LagerModule - -[hidden]> WareModule
WareModule - -[hidden]> AppModule

}
@enduml

PlantUML version 1.2022.8beta2(Unknown compile time)
(GPL source distribution)
Java Runtime: Java(TM) SE Runtime Environment
JVM: Java HotSpot(TM) 64-Bit Server VM
Default Encoding: UTF-8
Language: en
Country: US
--></g></svg>