<?xml version="1.0" encoding="UTF-8" standalone="no"?><svg xmlns="http://www.w3.org/2000/svg" xmlns:xlink="http://www.w3.org/1999/xlink" contentStyleType="text/css" height="792px" preserveAspectRatio="none" style="width:743px;height:792px;background:#FFFFFF;" version="1.1" viewBox="0 0 743 792" width="743px" zoomAndPan="magnify"><defs/><g><!--MD5=[c3e97fed644131e807bab9f4508f7da4]
cluster VintageCarCommunity--><g id="cluster_VintageCarCommunity"><rect fill="none" height="773" rx="3.5" ry="3.5" style="stroke:#696969;stroke-width:1.0;" width="285" x="200" y="7"/><text fill="#000000" font-family="sans-serif" font-size="14" font-weight="bold" lengthAdjust="spacing" textLength="182" x="251.5" y="21.9951">VintageCarCommunity</text></g><g id="elem_Termin"><ellipse cx="342.6163" cy="743.2233" fill="#F1F1F1" rx="94.1163" ry="21.2233" style="stroke:#181818;stroke-width:0.5;"/><text fill="#000000" font-family="sans-serif" font-size="14" lengthAdjust="spacing" textLength="151" x="267.1163" y="746.0699">Terminen vereibaren</text></g><g id="elem_AngebotM"><ellipse cx="342.5118" cy="502.9024" fill="#F1F1F1" rx="95.0118" ry="21.4024" style="stroke:#181818;stroke-width:0.5;"/><text fill="#000000" font-family="sans-serif" font-size="14" lengthAdjust="spacing" textLength="153" x="266.0118" y="505.749">Einlagerung anbieten</text></g><g id="elem_Platz"><ellipse cx="342.288" cy="667.8576" fill="#F1F1F1" rx="82.288" ry="18.8576" style="stroke:#181818;stroke-width:0.5;"/><text fill="#000000" font-family="sans-serif" font-size="14" lengthAdjust="spacing" textLength="124" x="279.4505" y="670.9838">Stellplatz suchen</text></g><g id="elem_Anfrage"><ellipse cx="342.5329" cy="252.8066" fill="#F1F1F1" rx="104.5329" ry="23.3066" style="stroke:#181818;stroke-width:0.5;"/><text fill="#000000" font-family="sans-serif" font-size="14" lengthAdjust="spacing" textLength="174" x="255.5329" y="255.6533">Anfragen an Lagerhalter</text></g><g id="elem_Angebot"><ellipse cx="342.3518" cy="158.0704" fill="#F1F1F1" rx="88.3518" ry="20.0704" style="stroke:#181818;stroke-width:0.5;"/><text fill="#000000" font-family="sans-serif" font-size="14" lengthAdjust="spacing" textLength="138" x="273.3518" y="160.917">Angebot anfordern</text></g><g id="elem_Antwort"><ellipse cx="342.4738" cy="423.8948" fill="#F1F1F1" rx="99.9738" ry="22.3948" style="stroke:#181818;stroke-width:0.5;"/><text fill="#000000" font-family="sans-serif" font-size="14" lengthAdjust="spacing" textLength="164" x="260.4738" y="426.7414">Anfragen beantworten</text></g><g id="elem_Action"><ellipse cx="342.5673" cy="64.2135" fill="#F1F1F1" rx="99.0673" ry="22.2135" style="stroke:#181818;stroke-width:0.5;"/><text fill="#000000" font-family="sans-serif" font-size="14" lengthAdjust="spacing" textLength="162" x="261.5673" y="67.0601">Angebot an-/ablehnen</text></g><g id="elem_ETSuche"><ellipse cx="342.4187" cy="339.1837" fill="#F1F1F1" rx="126.4187" ry="27.6837" style="stroke:#181818;stroke-width:0.5;"/><text fill="#000000" font-family="sans-serif" font-size="14" lengthAdjust="spacing" textLength="221" x="231.9187" y="342.0304">Ersatzteile zu Fahrzeug suchen</text></g><g id="elem_extraAngebot"><ellipse cx="342.6502" cy="586.93" fill="#F1F1F1" rx="122.6502" ry="26.93" style="stroke:#181818;stroke-width:0.5;"/><text fill="#000000" font-family="sans-serif" font-size="14" lengthAdjust="spacing" textLength="213" x="236.1502" y="589.7767">Zusätzliches Angebot buchen</text></g><!--MD5=[9805712dd9de588b3638fa846fe13b08]
entity Einlagerer--><g id="elem_Einlagerer"><ellipse cx="79.5" cy="515.5" fill="#454645" rx="8" ry="8" style="stroke:#454645;stroke-width:0.5;"/><path d="M79.5,523.5 L79.5,550.5 M66.5,531.5 L92.5,531.5 M79.5,550.5 L66.5,565.5 M79.5,550.5 L92.5,565.5 " fill="none" style="stroke:#454645;stroke-width:0.5;"/><text fill="#454645" font-family="sans-serif" font-size="14" lengthAdjust="spacing" textLength="73" x="43" y="579.9951">Einlagerer</text></g><!--MD5=[c37f3a4f40fbd09c37a83d08a6c262e2]
entity Lagerhalter--><g id="elem_Lagerhalter"><ellipse cx="634" cy="430.5" fill="#454645" rx="8" ry="8" style="stroke:#454645;stroke-width:0.5;"/><path d="M634,438.5 L634,465.5 M621,446.5 L647,446.5 M634,465.5 L621,480.5 M634,465.5 L647,480.5 " fill="none" style="stroke:#454645;stroke-width:0.5;"/><text fill="#454645" font-family="sans-serif" font-size="14" lengthAdjust="spacing" textLength="83" x="592.5" y="494.9951">Lagerhalter</text></g><g id="elem_NPlatz"><path d="M6,644 L6,692.3984 A3.5,3.5 0 0 0 9.5,695.8984 L149.5,695.8984 A3.5,3.5 0 0 0 153,692.3984 L153,672 L259.536,668 L153,664 L153,650.5 L143,640.5 L9.5,640.5 A3.5,3.5 0 0 0 6,644 " fill="#7FFFD4" style="stroke:#181818;stroke-width:1.5;"/><path d="M143,640.5 L143,648.75 A1.75,1.75 0 0 0 144.75,650.5 L153,650.5 L143,640.5 " fill="#7FFFD4" style="stroke:#181818;stroke-width:1.5;"/><text fill="#454645" font-family="sans-serif" font-size="13" lengthAdjust="spacing" textLength="83" x="12" y="657.5669">Die Suche ist</text><text fill="#454645" font-family="sans-serif" font-size="13" lengthAdjust="spacing" textLength="106" x="12" y="672.6997">nur für deutsche</text><text fill="#454645" font-family="sans-serif" font-size="13" lengthAdjust="spacing" textLength="126" x="12" y="687.8325">Großstädte möglich</text></g><g id="elem_NSearch"><path d="M532,644 L532,669.205 L424.527,670.239 L532,677.205 L532,707.5313 A3.5,3.5 0 0 0 535.5,711.0313 L732.5,711.0313 A3.5,3.5 0 0 0 736,707.5313 L736,650.5 L726,640.5 L535.5,640.5 A3.5,3.5 0 0 0 532,644 " fill="#7FFFD4" style="stroke:#181818;stroke-width:1.5;"/><path d="M726,640.5 L726,648.75 A1.75,1.75 0 0 0 727.75,650.5 L736,650.5 L726,640.5 " fill="#7FFFD4" style="stroke:#181818;stroke-width:1.5;"/><text fill="#454645" font-family="sans-serif" font-size="13" lengthAdjust="spacing" textLength="179" x="538" y="657.5669">Sucherergebnisse enthalten</text><text fill="#454645" font-family="sans-serif" font-size="13" lengthAdjust="spacing" textLength="181" x="538" y="672.6997">die Anschrift zusammen mit</text><text fill="#454645" font-family="sans-serif" font-size="13" lengthAdjust="spacing" textLength="173" x="538" y="687.8325">dessen Merkmalen und vor</text><text fill="#454645" font-family="sans-serif" font-size="13" lengthAdjust="spacing" textLength="171" x="538" y="702.9653">Ort angebotenen Services.</text></g><g id="elem_NAnfrage"><path d="M549,236.5 L549,249 L447.198,253 L549,257 L549,269.7656 A3.5,3.5 0 0 0 552.5,273.2656 L715.5,273.2656 A3.5,3.5 0 0 0 719,269.7656 L719,243 L709,233 L552.5,233 A3.5,3.5 0 0 0 549,236.5 " fill="#7FFFD4" style="stroke:#181818;stroke-width:1.5;"/><path d="M709,233 L709,241.25 A1.75,1.75 0 0 0 710.75,243 L719,243 L709,233 " fill="#7FFFD4" style="stroke:#181818;stroke-width:1.5;"/><text fill="#454645" font-family="sans-serif" font-size="13" lengthAdjust="spacing" textLength="127" x="555" y="250.0669">Detailinformationen</text><text fill="#454645" font-family="sans-serif" font-size="13" lengthAdjust="spacing" textLength="149" x="555" y="265.1997">zum Standort anfragen</text></g><g id="elem_NTermin"><path d="M13,734 L13,782.3984 A3.5,3.5 0 0 0 16.5,785.8984 L142.5,785.8984 A3.5,3.5 0 0 0 146,782.3984 L146,758.2342 L251.292,748.1843 L146,750.2342 L146,740.5 L136,730.5 L16.5,730.5 A3.5,3.5 0 0 0 13,734 " fill="#7FFFD4" style="stroke:#181818;stroke-width:1.5;"/><path d="M136,730.5 L136,738.75 A1.75,1.75 0 0 0 137.75,740.5 L146,740.5 L136,730.5 " fill="#7FFFD4" style="stroke:#181818;stroke-width:1.5;"/><text fill="#454645" font-family="sans-serif" font-size="13" lengthAdjust="spacing" textLength="106" x="19" y="747.5669">Entgegennahme</text><text fill="#454645" font-family="sans-serif" font-size="13" lengthAdjust="spacing" textLength="96" x="19" y="762.6997">oder Rückgabe</text><text fill="#454645" font-family="sans-serif" font-size="13" lengthAdjust="spacing" textLength="112" x="19" y="777.8325">eines Fahrzeuges</text></g><g id="elem_N2"><path d="M585,554 L585,575.502 L464.178,583.248 L585,583.502 L585,602.3984 A3.5,3.5 0 0 0 588.5,605.8984 L679.5,605.8984 A3.5,3.5 0 0 0 683,602.3984 L683,560.5 L673,550.5 L588.5,550.5 A3.5,3.5 0 0 0 585,554 " fill="#7FFFD4" style="stroke:#181818;stroke-width:1.5;"/><path d="M673,550.5 L673,558.75 A1.75,1.75 0 0 0 674.75,560.5 L683,560.5 L673,550.5 " fill="#7FFFD4" style="stroke:#181818;stroke-width:1.5;"/><text fill="#454645" font-family="sans-serif" font-size="13" lengthAdjust="spacing" textLength="62" x="591" y="567.5669">Wird vom</text><text fill="#454645" font-family="sans-serif" font-size="13" lengthAdjust="spacing" textLength="73" x="591" y="582.6997">Lagerhalter</text><text fill="#454645" font-family="sans-serif" font-size="13" lengthAdjust="spacing" textLength="69" x="591" y="597.8325">angeboten</text></g><!--MD5=[33d848914d49eb9c4d1d3fbab8345de9]
link Einlagerer to extraAngebot--><g id="link_Einlagerer_extraAngebot"><path d="M116.244,550.752 C148.843,555.998 198.558,563.998 242.998,571.149 " fill="none" id="Einlagerer-extraAngebot" style="stroke:#454645;stroke-width:1.0;"/></g><!--MD5=[e3a370a2bae4c7103ddde06f09189e9b]
link Anfrage to Angebot--><g id="link_Anfrage_Angebot"><path d="M342.5,229.027 C342.5,215.026 342.5,197.377 342.5,183.174 " fill="none" id="Anfrage-to-Angebot" style="stroke:#454645;stroke-width:1.0;stroke-dasharray:7.0,7.0;"/><polygon fill="#454645" points="342.5,178.111,338.5,187.111,342.5,183.111,346.5,187.111,342.5,178.111" style="stroke:#454645;stroke-width:1.0;"/><text fill="#000000" font-family="sans-serif" font-size="13" lengthAdjust="spacing" textLength="61" x="300.5" y="208.3169">«extend»</text></g><!--MD5=[d46939ea497eb1905a0d10e833f673a0]
link Angebot to Action--><g id="link_Angebot_Action"><path d="M342.5,137.603 C342.5,124.138 342.5,106.329 342.5,91.601 " fill="none" id="Angebot-to-Action" style="stroke:#454645;stroke-width:1.0;stroke-dasharray:7.0,7.0;"/><polygon fill="#454645" points="342.5,86.329,338.5,95.329,342.5,91.329,346.5,95.329,342.5,86.329" style="stroke:#454645;stroke-width:1.0;"/><text fill="#000000" font-family="sans-serif" font-size="13" lengthAdjust="spacing" textLength="61" x="300.5" y="116.5669">«include»</text></g><!--MD5=[61708725cd9595ae9ab592b0235fecd8]
reverse link Antwort to Lagerhalter--><g id="link_Antwort_Lagerhalter"><path d="M435.423,435.431 C488.11,441.983 551.619,449.88 592.15,454.92 " fill="none" id="Antwort-backto-Lagerhalter" style="stroke:#454645;stroke-width:1.0;"/><polygon fill="#454645" points="430.36,434.801,438.7974,439.8813,435.3218,435.4182,439.7849,431.9425,430.36,434.801" style="stroke:#454645;stroke-width:1.0;"/></g><!--MD5=[12450c4b668d28ab15d0aef0493c7159]
reverse link AngebotM to Lagerhalter--><g id="link_AngebotM_Lagerhalter"><path d="M427.419,490.535 C481.558,482.494 549.574,472.391 592.179,466.063 " fill="none" id="AngebotM-backto-Lagerhalter" style="stroke:#454645;stroke-width:1.0;"/><polygon fill="#454645" points="422.225,491.307,431.7156,493.9392,427.1706,490.5713,430.5385,486.0263,422.225,491.307" style="stroke:#454645;stroke-width:1.0;"/></g><!--MD5=[3b768a17af4f8ba7fdd2dfd8f737ea29]
link Einlagerer to Termin--><g id="link_Einlagerer_Termin"><path d="M116.144,578.781 C128.747,591.846 142.408,607.398 153,623 C175.667,656.389 160.821,679.378 192,705 C208.76,718.7732 229.883,727.6348 250.929,733.314 " fill="none" id="Einlagerer-to-Termin" style="stroke:#454645;stroke-width:1.0;"/><polygon fill="#454645" points="255.986,734.6194,248.2701,728.4986,251.1444,733.3708,246.2722,736.2451,255.986,734.6194" style="stroke:#454645;stroke-width:1.0;"/></g><!--MD5=[f1344e94dc3c28d505b3e3c2560e5116]
link Einlagerer to Platz--><g id="link_Einlagerer_Platz"><path d="M116.147,559.034 C138.486,569.486 166.301,585.792 184,608 C191.007,616.793 183.717,624.396 192,632 C209.718,648.265 233.481,657.541 256.839,662.732 " fill="none" id="Einlagerer-to-Platz" style="stroke:#454645;stroke-width:1.0;"/><polygon fill="#454645" points="261.815,663.779,253.8304,658.0131,256.9219,662.7504,252.1846,665.8419,261.815,663.779" style="stroke:#454645;stroke-width:1.0;"/></g><!--MD5=[5362356b29a6fb8c08ec5307015d7190]
link Einlagerer to Anfrage--><g id="link_Einlagerer_Anfrage"><path d="M86.9396,506.565 C98.2365,451.317 126.923,349.96 192,294 C207.238,280.897 226.306,271.95 245.673,265.849 " fill="none" id="Einlagerer-to-Anfrage" style="stroke:#454645;stroke-width:1.0;"/><polygon fill="#454645" points="250.602,264.358,240.8295,263.1342,245.816,265.8052,243.145,270.7918,250.602,264.358" style="stroke:#454645;stroke-width:1.0;"/></g><!--MD5=[05fcbe4199bdef27da56b8f3fd20bc43]
link Einlagerer to ETSuche--><g id="link_Einlagerer_ETSuche"><path d="M97.5615,506.866 C115.855,470.201 148.278,415.794 192,384 C206.828,373.217 224.257,364.991 241.878,358.723 " fill="none" id="Einlagerer-to-ETSuche" style="stroke:#454645;stroke-width:1.0;"/><polygon fill="#454645" points="246.851,357.007,237.0384,356.1629,242.1247,358.6386,239.649,363.725,246.851,357.007" style="stroke:#454645;stroke-width:1.0;"/></g><!--MD5=[be39b61b43ca3f0d0ca0b6df2c496c8a]
@startuml
!theme vibrant

left to right direction
skinparam packageStyle rectangle

actor Einlagerer as Einlagerer
actor Lagerhalter as Lagerhalter

note "Die Suche ist\nnur für deutsche\nGroßstädte möglich" as NPlatz

note "Sucherergebnisse enthalten \ndie Anschrift zusammen mit\ndessen Merkmalen und vor\nOrt angebotenen Services." as NSearch

note "Detailinformationen\nzum Standort anfragen" as NAnfrage
note "Entgegennahme\noder Rückgabe \neines Fahrzeuges" as NTermin

note "Wird vom \nLagerhalter \nangeboten" as N2


rectangle VintageCarCommunity {

usecase "Terminen vereibaren" as Termin
usecase "Einlagerung anbieten" as AngebotM
usecase "Stellplatz suchen" as Platz
usecase "Anfragen an Lagerhalter" as Anfrage
usecase "Angebot anfordern" as Angebot
usecase "Anfragen beantworten" as Antwort
usecase "Angebot an-/ablehnen" as Action
usecase "Ersatzteile zu Fahrzeug suchen" as ETSuche
usecase "Zusätzliches Angebot buchen" as extraAngebot



Einlagerer - - extraAngebot

Anfrage .> Angebot : <<extend>> 
Angebot .> Action : <<include>>

NPlatz .. (Platz)
NTermin .. (Termin)
(Platz) .. NSearch
(Anfrage) .. NAnfrage
(extraAngebot) .. N2

}

Antwort <- - Lagerhalter
AngebotM <- - Lagerhalter

Einlagerer - -> (Termin)
Einlagerer - -> (Platz)
Einlagerer - -> Anfrage
Einlagerer - -> ETSuche
@enduml

@startuml
skinparam BackgroundColor FFFFFF
skinparam shadowing false
skinparam RoundCorner 7
skinparam ArrowColor 454645
skinparam FontColor 454645
skinparam SequenceLifeLineBorderColor 696969
skinparam SequenceGroupHeaderFontColor 454645
skinparam SequenceGroupFontColor 696969
skinparam SequenceGroupBorderColor 696969
skinparam SequenceGroupBorderThickness 1

skinparam sequenceDivider {
    BorderColor 454645
    BorderThickness 1
    FontColor 454645
}

skinparam participant {
    BackgroundColor FF6347
    BorderColor 454645
    FontColor FFFFFF
    BorderThickness 1.5
}

skinparam database {
    BackgroundColor 00FFFF
    BorderColor 454645
    FontColor 454645
}

skinparam entity {
    BackgroundColor FFE552
    BorderColor 454645
    FontColor 454645
}

skinparam note {
    BackgroundColor 7FFFD4
    BorderColor 454645
    FontColor 454645
    BorderThickness 1.5
}

skinparam actor {
    BackgroundColor 454645
    BorderColor 454645
    FontColor 454645
}

skinparam boundary {
    BackgroundColor FFE552
    BorderColor 454645
    FontColor 454645
}

skinparam control {
    BackgroundColor FFE552
    BorderColor 454645
    FontColor 454645
}

skinparam collections {
    BackgroundColor FF5F42
    BorderColor 454645
    FontColor 454645
}

skinparam queue {
    BackgroundColor FF6347
    BorderColor 454645
    FontColor FFF
    BorderThickness 1.5
}

left to right direction
skinparam packageStyle rectangle

actor Einlagerer as Einlagerer
actor Lagerhalter as Lagerhalter

note "Die Suche ist\nnur für deutsche\nGroßstädte möglich" as NPlatz

note "Sucherergebnisse enthalten \ndie Anschrift zusammen mit\ndessen Merkmalen und vor\nOrt angebotenen Services." as NSearch

note "Detailinformationen\nzum Standort anfragen" as NAnfrage
note "Entgegennahme\noder Rückgabe \neines Fahrzeuges" as NTermin

note "Wird vom \nLagerhalter \nangeboten" as N2


rectangle VintageCarCommunity {

usecase "Terminen vereibaren" as Termin
usecase "Einlagerung anbieten" as AngebotM
usecase "Stellplatz suchen" as Platz
usecase "Anfragen an Lagerhalter" as Anfrage
usecase "Angebot anfordern" as Angebot
usecase "Anfragen beantworten" as Antwort
usecase "Angebot an-/ablehnen" as Action
usecase "Ersatzteile zu Fahrzeug suchen" as ETSuche
usecase "Zusätzliches Angebot buchen" as extraAngebot



Einlagerer - - extraAngebot

Anfrage .> Angebot : <<extend>> 
Angebot .> Action : <<include>>

NPlatz .. (Platz)
NTermin .. (Termin)
(Platz) .. NSearch
(Anfrage) .. NAnfrage
(extraAngebot) .. N2

}

Antwort <- - Lagerhalter
AngebotM <- - Lagerhalter

Einlagerer - -> (Termin)
Einlagerer - -> (Platz)
Einlagerer - -> Anfrage
Einlagerer - -> ETSuche
@enduml

PlantUML version 1.2022.8beta2(Unknown compile time)
(GPL source distribution)
Java Runtime: Java(TM) SE Runtime Environment
JVM: Java HotSpot(TM) 64-Bit Server VM
Default Encoding: UTF-8
Language: en
Country: US
--></g></svg>