<?xml version="1.0" encoding="UTF-8" standalone="no"?><svg xmlns="http://www.w3.org/2000/svg" xmlns:xlink="http://www.w3.org/1999/xlink" contentStyleType="text/css" height="631px" preserveAspectRatio="none" style="width:740px;height:631px;background:#FFFFFF;" version="1.1" viewBox="0 0 740 631" width="740px" zoomAndPan="magnify"><defs/><g><!--MD5=[c3e97fed644131e807bab9f4508f7da4]
cluster VintageCarCommunity--><g id="cluster_VintageCarCommunity"><rect fill="none" height="618" rx="2.5" ry="2.5" style="stroke:#181818;stroke-width:1.0;" width="316" x="133" y="7"/><text fill="#000000" font-family="sans-serif" font-size="14" font-weight="bold" lengthAdjust="spacing" textLength="182" x="200" y="21.9951">VintageCarCommunity</text></g><g id="elem_Registrieren"><ellipse cx="291.0557" cy="66.9111" fill="#F1F1F1" rx="110.0557" ry="24.4111" style="stroke:#181818;stroke-width:0.5;"/><text fill="#000000" font-family="sans-serif" font-size="14" lengthAdjust="spacing" textLength="186" x="198.0557" y="69.7578">Lagehalter Konto anlegen</text></g><g id="elem_Services"><ellipse cx="290.9263" cy="145.7853" fill="#F1F1F1" rx="84.4263" ry="19.2853" style="stroke:#181818;stroke-width:0.5;"/><text fill="#000000" font-family="sans-serif" font-size="14" lengthAdjust="spacing" textLength="129" x="226.305" y="148.6739">Services anbieten</text></g><g id="elem_Reparaturen"><ellipse cx="290.995" cy="229.799" fill="#F1F1F1" rx="131.995" ry="28.799" style="stroke:#181818;stroke-width:0.5;"/><text fill="#000000" font-family="sans-serif" font-size="14" lengthAdjust="spacing" textLength="136" x="220.995" y="224.4972">Reparaturanfragen</text><text fill="#000000" font-family="sans-serif" font-size="14" lengthAdjust="spacing" textLength="188" x="196.995" y="240.7941">an Werkstätten einstellen</text></g><g id="elem_Capacities"><ellipse cx="290.9095" cy="316.0819" fill="#F1F1F1" rx="95.9095" ry="21.5819" style="stroke:#181818;stroke-width:0.5;"/><text fill="#000000" font-family="sans-serif" font-size="14" lengthAdjust="spacing" textLength="155" x="213.4095" y="318.9286">Kapazitäten angeben</text></g><g id="elem_Fahrzeugsmarken"><ellipse cx="290.8807" cy="399.101" fill="#F1F1F1" rx="82.3807" ry="26.101" style="stroke:#181818;stroke-width:0.5;"/><text fill="#000000" font-family="sans-serif" font-size="14" lengthAdjust="spacing" textLength="100" x="237.8807" y="394.7001">Spezialgebiet</text><text fill="#000000" font-family="sans-serif" font-size="14" lengthAdjust="spacing" textLength="63" x="258.3807" y="410.997">angeben</text></g><g id="elem_Info"><ellipse cx="291.0271" cy="485.8054" fill="#F1F1F1" rx="117.0271" ry="25.8054" style="stroke:#181818;stroke-width:0.5;"/><text fill="#000000" font-family="sans-serif" font-size="14" lengthAdjust="spacing" textLength="201" x="190.5271" y="488.6521">Informationen bereitstellen</text></g><g id="elem_Termin"><ellipse cx="291.1004" cy="577.8201" fill="#F1F1F1" rx="142.1004" ry="30.8201" style="stroke:#181818;stroke-width:0.5;"/><text fill="#000000" font-family="sans-serif" font-size="14" lengthAdjust="spacing" textLength="246" x="168.1004" y="580.6668">Termin mit werkstatt vereinbaren</text></g><!--MD5=[c37f3a4f40fbd09c37a83d08a6c262e2]
entity Lagerhalter--><g id="elem_Lagerhalter"><ellipse cx="47.5" cy="286.5" fill="#F1F1F1" rx="8" ry="8" style="stroke:#181818;stroke-width:0.5;"/><path d="M47.5,294.5 L47.5,321.5 M34.5,302.5 L60.5,302.5 M47.5,321.5 L34.5,336.5 M47.5,321.5 L60.5,336.5 " fill="none" style="stroke:#181818;stroke-width:0.5;"/><text fill="#000000" font-family="sans-serif" font-size="14" lengthAdjust="spacing" textLength="83" x="6" y="350.9951">Lagerhalter</text></g><g id="elem_NServices"><path d="M493,135.5 L493,143.254 L375.658,146.523 L493,151.254 L493,160.6328 A0,0 0 0 0 493,160.6328 L733,160.6328 A0,0 0 0 0 733,160.6328 L733,145.5 L723,135.5 L493,135.5 A0,0 0 0 0 493,135.5 " fill="#FEFFDD" style="stroke:#181818;stroke-width:0.5;"/><path d="M723,135.5 L723,145.5 L733,145.5 L723,135.5 " fill="#FEFFDD" style="stroke:#181818;stroke-width:0.5;"/><text fill="#000000" font-family="sans-serif" font-size="13" lengthAdjust="spacing" textLength="219" x="499" y="152.5669">z.B. Einschweißen des Fahrzeuges</text></g><g id="elem_NRegistrieren"><path d="M523,29.5 L523,61.557 L401.231,66.317 L523,69.557 L523,100.0313 A0,0 0 0 0 523,100.0313 L703,100.0313 A0,0 0 0 0 703,100.0313 L703,39.5 L693,29.5 L523,29.5 A0,0 0 0 0 523,29.5 " fill="#FEFFDD" style="stroke:#181818;stroke-width:0.5;"/><path d="M693,29.5 L693,39.5 L703,39.5 L693,29.5 " fill="#FEFFDD" style="stroke:#181818;stroke-width:0.5;"/><text fill="#000000" font-family="sans-serif" font-size="13" lengthAdjust="spacing" textLength="159" x="529" y="46.5669">Samt Ort des Einlagerns,</text><text fill="#000000" font-family="sans-serif" font-size="13" lengthAdjust="spacing" textLength="129" x="529" y="61.6997">Einlagerungskosten,</text><text fill="#000000" font-family="sans-serif" font-size="13" lengthAdjust="spacing" textLength="86" x="529" y="76.8325">Servicezeiten</text><text fill="#000000" font-family="sans-serif" font-size="13" lengthAdjust="spacing" textLength="147" x="529" y="91.9653">und Lagerbedingungen</text></g><g id="elem_NCapacities"><path d="M515.5,288.5 L515.5,312 L387.144,316 L515.5,320 L515.5,343.8984 A0,0 0 0 0 515.5,343.8984 L710.5,343.8984 A0,0 0 0 0 710.5,343.8984 L710.5,298.5 L700.5,288.5 L515.5,288.5 A0,0 0 0 0 515.5,288.5 " fill="#FEFFDD" style="stroke:#181818;stroke-width:0.5;"/><path d="M700.5,288.5 L700.5,298.5 L710.5,298.5 L700.5,288.5 " fill="#FEFFDD" style="stroke:#181818;stroke-width:0.5;"/><text fill="#000000" font-family="sans-serif" font-size="13" lengthAdjust="spacing" textLength="170" x="521.5" y="305.5669">Wie viele Plätze in welcher</text><text fill="#000000" font-family="sans-serif" font-size="13" lengthAdjust="spacing" textLength="154" x="521.5" y="320.6997">Kategorie für Fahrzeuge</text><text fill="#000000" font-family="sans-serif" font-size="13" lengthAdjust="spacing" textLength="93" x="521.5" y="335.8325">verfügbar sind</text></g><g id="elem_NFahrzeugsmarken"><path d="M511,379 L511,395 L373.577,399 L511,403 L511,419.2656 A0,0 0 0 0 511,419.2656 L715,419.2656 A0,0 0 0 0 715,419.2656 L715,389 L705,379 L511,379 A0,0 0 0 0 511,379 " fill="#FEFFDD" style="stroke:#181818;stroke-width:0.5;"/><path d="M705,379 L705,389 L715,389 L705,379 " fill="#FEFFDD" style="stroke:#181818;stroke-width:0.5;"/><text fill="#000000" font-family="sans-serif" font-size="13" lengthAdjust="spacing" textLength="183" x="517" y="396.0669">Auf welche Fahrzeugmarken</text><text fill="#000000" font-family="sans-serif" font-size="13" lengthAdjust="spacing" textLength="171" x="517" y="411.1997">Lagerhalter spezialisiert ist</text></g><g id="elem_NInfo"><path d="M532,458.5 L532,482 L408.433,486 L532,490 L532,513.8984 A0,0 0 0 0 532,513.8984 L694,513.8984 A0,0 0 0 0 694,513.8984 L694,468.5 L684,458.5 L532,458.5 A0,0 0 0 0 532,458.5 " fill="#FEFFDD" style="stroke:#181818;stroke-width:0.5;"/><path d="M684,458.5 L684,468.5 L694,468.5 L684,458.5 " fill="#FEFFDD" style="stroke:#181818;stroke-width:0.5;"/><text fill="#000000" font-family="sans-serif" font-size="13" lengthAdjust="spacing" textLength="133" x="538" y="475.5669">Fahrbereitschaft und</text><text fill="#000000" font-family="sans-serif" font-size="13" lengthAdjust="spacing" textLength="125" x="538" y="490.6997">Wartungsstand des</text><text fill="#000000" font-family="sans-serif" font-size="13" lengthAdjust="spacing" textLength="141" x="538" y="505.8325">jeweiligen Fahrzeuges</text></g><!--MD5=[d3ad8efe7938513101329f8075d76533]
link Lagerhalter to Registrieren--><g id="link_Lagerhalter_Registrieren"><path d="M52.0417,277.6 C58.4315,230.925 76.1696,152.966 125,109 C141.644,94.014 162.89,84.219 184.556,77.856 " fill="none" id="Lagerhalter-to-Registrieren" style="stroke:#181818;stroke-width:1.0;"/><polygon fill="#181818" points="189.477,76.471,179.73,75.0584,184.6639,77.8253,181.8969,82.7593,189.477,76.471" style="stroke:#181818;stroke-width:1.0;"/></g><!--MD5=[e80091a4a72584d30501efd3a8e11049]
link Lagerhalter to Services--><g id="link_Lagerhalter_Services"><path d="M61.0192,277.775 C72.8219,247.763 93.4627,207.283 125,184 C147.82,167.153 176.879,157.607 204.233,152.252 " fill="none" id="Lagerhalter-to-Services" style="stroke:#181818;stroke-width:1.0;"/><polygon fill="#181818" points="209.318,151.3,199.7356,149.0244,204.4034,152.2201,201.2077,156.8878,209.318,151.3" style="stroke:#181818;stroke-width:1.0;"/></g><!--MD5=[7f9ebe02bd79ab0df74538debc2fa1ae]
link Lagerhalter to Reparaturen--><g id="link_Lagerhalter_Reparaturen"><path d="M89.1152,293.451 C100.5194,287.63 113.068,281.69 125,277 C148.033,267.947 173.497,259.82 197.387,252.971 " fill="none" id="Lagerhalter-to-Reparaturen" style="stroke:#181818;stroke-width:1.0;"/><polygon fill="#181818" points="202.459,251.529,192.7082,250.1428,197.6496,252.8964,194.896,257.8378,202.459,251.529" style="stroke:#181818;stroke-width:1.0;"/></g><!--MD5=[0da982063ca2e20e8476e21cc0053a90]
link Lagerhalter to Capacities--><g id="link_Lagerhalter_Capacities"><path d="M89.1941,316 C116.741,316 154.404,316 189.673,316 " fill="none" id="Lagerhalter-to-Capacities" style="stroke:#181818;stroke-width:1.0;"/><polygon fill="#181818" points="194.858,316,185.858,312,189.858,316,185.858,320,194.858,316" style="stroke:#181818;stroke-width:1.0;"/></g><!--MD5=[f07463d56d09f7e7466066f610051b10]
link Lagerhalter to Fahrzeugsmarken--><g id="link_Lagerhalter_Fahrzeugsmarken"><path d="M89.0634,338.683 C100.4674,344.504 113.029,350.411 125,355 C154.571,366.335 188.192,375.871 217.335,383.136 " fill="none" id="Lagerhalter-to-Fahrzeugsmarken" style="stroke:#181818;stroke-width:1.0;"/><polygon fill="#181818" points="222.347,384.375,214.5682,378.3342,217.4928,383.1764,212.6506,386.101,222.347,384.375" style="stroke:#181818;stroke-width:1.0;"/></g><!--MD5=[75fbbc9122d452ec89c89bae76771454]
link Lagerhalter to Info--><g id="link_Lagerhalter_Info"><path d="M62.1867,354.028 C74.39,382.621 95.0005,420.581 125,443 C142.526,456.098 163.685,465.217 184.92,471.563 " fill="none" id="Lagerhalter-to-Info" style="stroke:#181818;stroke-width:1.0;"/><polygon fill="#181818" points="189.737,472.955,182.2015,466.6133,184.9336,471.5667,179.9802,474.2988,189.737,472.955" style="stroke:#181818;stroke-width:1.0;"/></g><!--MD5=[7b381b7a92a5011a5ce70c029f62df5b]
link Lagerhalter to Termin--><g id="link_Lagerhalter_Termin"><path d="M51.7381,354.143 C57.8387,401.93 75.3033,483.21 125,530 C137.905,542.1506 153.708,551.2467 170.368,558.0516 " fill="none" id="Lagerhalter-to-Termin" style="stroke:#181818;stroke-width:1.0;"/><polygon fill="#181818" points="175.088,559.9108,168.1807,552.8902,170.436,558.078,165.2482,560.3334,175.088,559.9108" style="stroke:#181818;stroke-width:1.0;"/></g><!--MD5=[84a67d6ca5f12170cb26a60a79f5bdb1]
@startuml
left to right direction

actor Lagerhalter as Lagerhalter

note "z.B. Einschweißen des Fahrzeuges" as NServices 
note "Samt Ort des Einlagerns,\nEinlagerungskosten,\nServicezeiten \nund Lagerbedingungen" as NRegistrieren
note "Wie viele Plätze in welcher \nKategorie für Fahrzeuge\nverfügbar sind" as NCapacities
note "Auf welche Fahrzeugmarken\nLagerhalter spezialisiert ist" as NFahrzeugsmarken
note "Fahrbereitschaft und\nWartungsstand des\njeweiligen Fahrzeuges" as NInfo

rectangle VintageCarCommunity {
  usecase "Lagehalter Konto anlegen" as Registrieren
  usecase "Services anbieten" as Services
  usecase "Reparaturanfragen \nan Werkstätten einstellen" as Reparaturen
  usecase "Kapazitäten angeben" as Capacities
  usecase "Spezialgebiet\n angeben" as Fahrzeugsmarken
  usecase "Informationen bereitstellen" as Info
  usecase " Termin mit werkstatt vereinbaren " as Termin

(Services) .. NServices
(Registrieren) .. NRegistrieren
(Capacities) .. NCapacities
(Fahrzeugsmarken) .. NFahrzeugsmarken
(Info) .. NInfo
}


Lagerhalter - -> Registrieren
Lagerhalter - -> Services
Lagerhalter - -> Reparaturen
Lagerhalter - -> Capacities
Lagerhalter - -> Fahrzeugsmarken
Lagerhalter - -> Info
Lagerhalter - -> Termin
@enduml

PlantUML version 1.2022.8beta2(Unknown compile time)
(GPL source distribution)
Java Runtime: Java(TM) SE Runtime Environment
JVM: Java HotSpot(TM) 64-Bit Server VM
Default Encoding: UTF-8
Language: en
Country: US
--></g></svg>